<?xml version="1.0" standalone="no"?>
<!DOCTYPE svg PUBLIC "-//W3C//DTD SVG 20010904//EN"
 "http://www.w3.org/TR/2001/REC-SVG-20010904/DTD/svg10.dtd">
<svg version="1.0" xmlns="http://www.w3.org/2000/svg"
 width="750.000000pt" height="1000.000000pt" viewBox="0 0 750.000000 1000.000000"
 preserveAspectRatio="xMidYMid meet">

<g transform="translate(0.000000,1000.000000) scale(0.100000,-0.100000)"
fill="#000000" stroke="none">
<path d="M2698 8593 c7 -3 16 -2 19 1 4 3 -2 6 -13 5 -11 0 -14 -3 -6 -6z"/>
<path d="M3530 8524 c-502 -42 -888 -143 -1298 -339 -363 -175 -643 -370 -931
-650 -577 -561 -929 -1250 -1046 -2049 -3 -21 -12 -113 -20 -205 -22 -245 -20
-355 11 -681 20 -216 95 -544 176 -770 183 -509 448 -928 828 -1311 431 -434
907 -722 1485 -898 200 -61 381 -97 660 -133 151 -19 588 -16 755 6 288 37
476 78 710 156 450 149 839 372 1210 691 680 585 1117 1438 1198 2341 9 107 9
527 0 639 -46 531 -233 1086 -523 1549 -503 803 -1307 1373 -2225 1577 -68 15
-78 17 -175 33 -174 30 -311 41 -530 44 -132 2 -260 2 -285 0z m423 -1372 c66
-103 188 -295 273 -427 85 -132 233 -361 328 -510 95 -148 280 -436 411 -640
131 -203 268 -417 305 -475 l67 -106 -43 -64 c-23 -36 -185 -288 -359 -560
-175 -272 -352 -549 -395 -615 -142 -219 -475 -738 -590 -917 -62 -98 -116
-178 -119 -178 -3 0 -311 -1 -683 -3 l-677 -2 14 23 c8 12 22 33 31 47 9 14
21 22 27 18 6 -3 7 -1 3 5 -9 16 253 424 266 415 7 -3 8 -1 4 6 -9 14 225 382
238 374 5 -4 6 -1 2 5 -3 6 24 57 61 114 101 156 828 1294 846 1324 4 7 -45
92 -107 190 -63 99 -179 280 -258 403 -79 123 -171 267 -205 320 -34 53 -82
128 -106 167 -25 39 -113 177 -197 307 -89 140 -149 241 -144 248 4 7 3 9 -3
6 -14 -9 -97 119 -87 134 4 7 3 9 -3 6 -7 -4 -66 79 -144 201 -73 114 -157
244 -186 290 l-53 82 682 0 683 -1 118 -187z"/>
<path d="M2170 8400 c-19 -11 -30 -19 -25 -19 6 0 26 8 45 19 19 11 31 19 25
19 -5 0 -26 -8 -45 -19z"/>
<path d="M2110 8370 c-9 -6 -10 -10 -3 -10 6 0 15 5 18 10 8 12 4 12 -15 0z"/>
<path d="M2050 8340 c-9 -6 -10 -10 -3 -10 6 0 15 5 18 10 8 12 4 12 -15 0z"/>
<path d="M1955 8290 c-3 -6 1 -7 9 -4 18 7 21 14 7 14 -6 0 -13 -4 -16 -10z"/>
<path d="M1869 8239 l-24 -20 28 17 c15 9 27 18 27 20 0 8 -8 4 -31 -17z"/>
<path d="M1815 8210 c-3 -6 1 -7 9 -4 18 7 21 14 7 14 -6 0 -13 -4 -16 -10z"/>
<path d="M1748 8170 c-27 -17 -48 -32 -48 -35 0 -3 23 9 50 26 28 17 50 33 50
35 0 6 -2 5 -52 -26z"/>
<path d="M1664 8114 c-18 -14 -18 -15 4 -4 12 6 22 13 22 15 0 8 -5 6 -26 -11z"/>
<path d="M1509 8003 c-13 -16 -12 -17 4 -4 9 7 17 15 17 17 0 8 -8 3 -21 -13z"/>
<path d="M1429 7943 c-13 -16 -12 -17 4 -4 9 7 17 15 17 17 0 8 -8 3 -21 -13z"/>
<path d="M1369 7893 l-24 -28 28 24 c25 23 32 31 24 31 -2 0 -14 -12 -28 -27z"/>
<path d="M1309 7843 l-24 -28 28 24 c25 23 32 31 24 31 -2 0 -14 -12 -28 -27z"/>
<path d="M1239 7783 l-34 -36 37 29 c21 16 38 32 38 37 0 12 -5 9 -41 -30z"/>
<path d="M1176 7722 l-19 -27 24 22 c12 12 21 24 18 27 -2 2 -13 -8 -23 -22z"/>
<path d="M1095 7648 l-50 -52 46 39 c39 33 66 65 56 65 -2 0 -25 -23 -52 -52z"/>
<path d="M984 7528 c-79 -82 -254 -298 -241 -298 2 0 32 36 66 80 34 44 67 79
73 77 7 -1 12 6 13 15 0 13 86 117 141 171 4 4 5 7 3 7 -3 0 -28 -24 -55 -52z"/>
<path d="M682 7155 c-53 -72 -86 -125 -78 -125 2 0 24 29 47 65 23 35 46 62
52 58 5 -3 7 -1 4 4 -4 6 3 22 14 37 11 14 18 26 15 26 -4 0 -28 -29 -54 -65z"/>
<path d="M584 7008 c-4 -7 -15 -24 -23 -38 -10 -15 -11 -21 -3 -16 13 7 46 66
38 66 -3 0 -8 -6 -12 -12z"/>
<path d="M528 6918 c-22 -33 -42 -74 -33 -66 5 4 15 2 24 -5 14 -11 14 -10 3
5 -12 15 -11 22 8 53 23 38 22 49 -2 13z"/>
<path d="M440 6760 c-11 -22 -18 -40 -15 -40 2 0 14 18 25 40 11 22 18 40 15
40 -2 0 -14 -18 -25 -40z"/>
<path d="M357 6592 c-32 -65 -57 -123 -57 -128 0 -5 28 47 61 115 33 68 58
125 56 127 -2 2 -29 -49 -60 -114z"/>
<path d="M281 6424 c-6 -15 -9 -29 -6 -32 3 -3 -1 -12 -9 -21 -7 -9 -17 -27
-20 -41 -4 -17 0 -13 14 13 13 24 25 35 33 30 8 -4 8 -1 -1 9 -10 13 -11 22
-2 38 6 12 10 24 7 26 -2 2 -9 -8 -16 -22z"/>
<path d="M221 6269 c-6 -18 -9 -34 -7 -36 2 -2 9 10 15 28 6 18 9 34 7 36 -2
2 -9 -10 -15 -28z"/>
<path d="M201 6213 c-1 -6 -4 -20 -7 -30 -5 -17 -5 -17 6 0 6 10 9 23 6 30 -3
9 -5 9 -5 0z"/>
<path d="M181 6144 c0 -11 3 -14 6 -6 3 7 2 16 -1 19 -3 4 -6 -2 -5 -13z"/>
<path d="M166 6105 c-9 -26 -7 -32 5 -12 6 10 9 21 6 23 -2 3 -7 -2 -11 -11z"/>
<path d="M152 6050 c0 -14 2 -19 5 -12 2 6 2 18 0 25 -3 6 -5 1 -5 -13z"/>
<path d="M125 5960 c-4 -17 -5 -34 -2 -36 2 -3 7 10 11 27 8 42 0 50 -9 9z"/>
<path d="M111 5894 c0 -11 3 -14 6 -6 3 7 2 16 -1 19 -3 4 -6 -2 -5 -13z"/>
<path d="M96 5848 c-3 -13 -5 -32 -5 -43 1 -11 5 -2 10 19 10 42 6 62 -5 24z"/>
<path d="M82 5760 c0 -14 2 -19 5 -12 2 6 2 18 0 25 -3 6 -5 1 -5 -13z"/>
<path d="M71 5714 c0 -11 3 -14 6 -6 3 7 2 16 -1 19 -3 4 -6 -2 -5 -13z"/>
<path d="M62 5660 c0 -19 2 -27 5 -17 2 9 2 25 0 35 -3 9 -5 1 -5 -18z"/>
<path d="M52 5590 c0 -14 2 -19 5 -12 2 6 2 18 0 25 -3 6 -5 1 -5 -13z"/>
<path d="M42 5535 c0 -16 2 -22 5 -12 2 9 2 23 0 30 -3 6 -5 -1 -5 -18z"/>
<path d="M32 5480 c0 -14 2 -19 5 -12 2 6 2 18 0 25 -3 6 -5 1 -5 -13z"/>
<path d="M31 5434 c0 -11 3 -14 6 -6 3 7 2 16 -1 19 -3 4 -6 -2 -5 -13z"/>
<path d="M23 5340 c0 -25 2 -35 4 -22 2 12 2 32 0 45 -2 12 -4 2 -4 -23z"/>
<path d="M12 5260 c0 -19 2 -27 5 -17 2 9 2 25 0 35 -3 9 -5 1 -5 -18z"/>
<path d="M12 5195 c0 -16 2 -22 5 -12 2 9 2 23 0 30 -3 6 -5 -1 -5 -18z"/>
<path d="M12 4805 c0 -16 2 -22 5 -12 2 9 2 23 0 30 -3 6 -5 -1 -5 -18z"/>
<path d="M12 4740 c0 -19 2 -27 5 -17 2 9 2 25 0 35 -3 9 -5 1 -5 -18z"/>
<path d="M23 4660 c0 -25 2 -35 4 -22 2 12 2 32 0 45 -2 12 -4 2 -4 -23z"/>
<path d="M31 4564 c0 -11 3 -14 6 -6 3 7 2 16 -1 19 -3 4 -6 -2 -5 -13z"/>
<path d="M32 4520 c0 -14 2 -19 5 -12 2 6 2 18 0 25 -3 6 -5 1 -5 -13z"/>
<path d="M42 4465 c0 -16 2 -22 5 -12 2 9 2 23 0 30 -3 6 -5 -1 -5 -18z"/>
<path d="M52 4410 c0 -14 2 -19 5 -12 2 6 2 18 0 25 -3 6 -5 1 -5 -13z"/>
<path d="M59 4342 c5 -34 6 -35 9 -8 2 16 0 32 -5 37 -5 5 -7 -7 -4 -29z"/>
<path d="M71 4284 c0 -11 3 -14 6 -6 3 7 2 16 -1 19 -3 4 -6 -2 -5 -13z"/>
<path d="M82 4240 c0 -14 2 -19 5 -12 2 6 2 18 0 25 -3 6 -5 1 -5 -13z"/>
<path d="M91 4189 c0 -13 4 -33 9 -44 7 -14 8 -8 3 20 -7 46 -13 59 -12 24z"/>
<path d="M111 4104 c0 -11 3 -14 6 -6 3 7 2 16 -1 19 -3 4 -6 -2 -5 -13z"/>
<path d="M122 4065 c0 -11 3 -29 8 -40 11 -25 11 1 0 35 -6 20 -8 21 -8 5z"/>
<path d="M152 3950 c0 -14 2 -19 5 -12 2 6 2 18 0 25 -3 6 -5 1 -5 -13z"/>
<path d="M160 3915 c0 -5 5 -17 10 -25 5 -8 10 -10 10 -5 0 6 -5 17 -10 25 -5
8 -10 11 -10 5z"/>
<path d="M181 3854 c0 -11 3 -14 6 -6 3 7 2 16 -1 19 -3 4 -6 -2 -5 -13z"/>
<path d="M196 3810 c7 -28 12 -35 18 -29 2 2 -2 15 -10 29 l-15 25 7 -25z"/>
<path d="M220 3735 c0 -5 5 -17 10 -25 5 -8 10 -10 10 -5 0 6 -5 17 -10 25 -5
8 -10 11 -10 5z"/>
<path d="M240 3685 c0 -5 5 -17 10 -25 5 -8 10 -10 10 -5 0 6 -5 17 -10 25 -5
8 -10 11 -10 5z"/>
<path d="M260 3636 c0 -14 62 -157 66 -153 3 2 -10 37 -27 78 -31 74 -39 89
-39 75z"/>
<path d="M341 3445 c0 -14 78 -162 79 -150 0 6 -18 44 -40 85 -22 41 -39 71
-39 65z"/>
<path d="M444 3233 c18 -36 23 -40 23 -20 0 6 -9 21 -20 32 -19 20 -19 20 -3
-12z"/>
<path d="M470 3188 c0 -9 41 -78 46 -78 3 0 -2 12 -10 28 -21 37 -36 58 -36
50z"/>
<path d="M530 3080 c6 -11 13 -20 16 -20 2 0 0 9 -6 20 -6 11 -13 20 -16 20
-2 0 0 -9 6 -20z"/>
<path d="M570 3015 c41 -70 141 -213 158 -227 9 -7 3 5 -14 27 -17 22 -57 81
-89 130 -62 96 -94 136 -55 70z"/>
<path d="M896 2828 c3 -5 10 -6 15 -3 13 9 11 12 -6 12 -8 0 -12 -4 -9 -9z"/>
<path d="M771 2727 c31 -46 75 -92 54 -57 -8 14 -19 26 -65 80 -12 14 -7 3 11
-23z"/>
<path d="M885 2585 c76 -91 117 -137 141 -155 19 -15 -18 29 -94 110 -41 44
-54 68 -29 54 6 -4 9 -4 5 0 -3 4 -9 7 -13 6 -4 -1 -21 11 -38 27 -17 15 -4
-3 28 -42z"/>
<path d="M1095 2352 c27 -29 50 -52 52 -52 10 0 -17 32 -56 65 l-46 39 50 -52z"/>
<path d="M1176 2278 c10 -14 21 -24 23 -22 3 3 -6 15 -18 27 l-24 22 19 -27z"/>
<path d="M1213 2244 c4 -7 35 -36 69 -65 34 -30 59 -49 55 -43 -4 7 -35 36
-69 65 -34 30 -59 49 -55 43z"/>
<path d="M1370 2105 c13 -14 26 -25 28 -25 3 0 -5 11 -18 25 -13 14 -26 25
-28 25 -3 0 5 -11 18 -25z"/>
<path d="M1425 2060 c10 -11 20 -20 23 -20 3 0 -3 9 -13 20 -10 11 -20 20 -23
20 -3 0 3 -9 13 -20z"/>
<path d="M1460 2036 c0 -2 7 -9 15 -16 13 -11 14 -10 9 4 -5 14 -24 23 -24 12z"/>
<path d="M1500 2006 c0 -2 14 -14 30 -26 17 -12 30 -19 30 -16 0 2 -13 14 -30
26 -16 12 -30 19 -30 16z"/>
<path d="M1585 1940 c10 -11 20 -20 23 -20 3 0 -3 9 -13 20 -10 11 -20 20 -23
20 -3 0 3 -9 13 -20z"/>
<path d="M1745 1835 c11 -9 29 -21 40 -26 l20 -10 -20 16 c-11 9 -29 21 -40
26 l-20 10 20 -16z"/>
<path d="M1817 1789 c7 -7 15 -10 18 -7 3 3 -2 9 -12 12 -14 6 -15 5 -6 -5z"/>
<path d="M1860 1766 c0 -3 9 -10 20 -16 11 -6 20 -8 20 -6 0 3 -9 10 -20 16
-11 6 -20 8 -20 6z"/>
<path d="M1957 1709 c7 -7 15 -10 18 -7 3 3 -2 9 -12 12 -14 6 -15 5 -6 -5z"/>
<path d="M2040 1666 c0 -2 7 -7 16 -10 8 -3 12 -2 9 4 -6 10 -25 14 -25 6z"/>
<path d="M2170 1600 c8 -5 20 -10 25 -10 6 0 3 5 -5 10 -8 5 -19 10 -25 10 -5
0 -3 -5 5 -10z"/>
<path d="M2240 1570 c8 -5 20 -10 25 -10 6 0 3 5 -5 10 -8 5 -19 10 -25 10 -5
0 -3 -5 5 -10z"/>
</g>
</svg>
